<svg width="65" height="65" viewBox="0 0 65 65" fill="none" xmlns="http://www.w3.org/2000/svg">
<path d="M0 5C0 2.23858 2.23858 0 5 0H60C62.7614 0 65 2.23858 65 5V60C65 62.7614 62.7614 65 60 65H5C2.23858 65 0 62.7614 0 60V5Z" fill="#62F0AC"/>
<mask id="mask0_820_378" style="mask-type:alpha" maskUnits="userSpaceOnUse" x="0" y="0" width="64" height="64">
<path d="M0 31.9566C0 14.3074 14.3074 0 31.9566 0V0C49.6057 0 63.9131 14.3074 63.9131 31.9566V31.9566C63.9131 49.6057 49.6057 63.9131 31.9566 63.9131V63.9131C14.3074 63.9131 0 49.6057 0 31.9566V31.9566Z" fill="#24242A"/>
</mask>
<g mask="url(#mask0_820_378)">
<path d="M-0.436523 -0.435547H64.4163V64.4173H-0.436523V-0.435547Z" fill="#62F0AC"/>
<path d="M34.3906 9.36719L38.2392 13.2158L13.0208 38.4343L9.17216 34.5857L34.3906 9.36719Z" fill="#CEFFFF"/>
<path d="M31.0811 20.8289L34.9237 24.7931L17.3291 41.5514L13.4865 37.5872L31.0811 20.8289Z" fill="#CEFFFF"/>
<path d="M36.8232 14.0227L41.1225 18.0374L35.1402 24.696L30.8409 20.6813L36.8232 14.0227Z" fill="#CEFFFF"/>
<path d="M45.502 21.1045L48.1485 23.5759L45.3928 26.6431L42.7462 24.1717L45.502 21.1045Z" fill="#CEFFFF"/>
<path d="M42.499 16.9685L46.2511 20.7313L26.3017 40.5954L22.5496 36.8325L42.499 16.9685Z" fill="#CEFFFF"/>
<path d="M47.6396 24.7195L51.3918 28.4822L27.6102 52.1599L23.858 48.3972L47.6396 24.7195Z" fill="#CEFFFF"/>
<path d="M43 24.2751L45.5646 26.8876L29.0798 42.9026L26.5152 40.2902L43 24.2751Z" fill="#CEFFFF"/>
<path d="M23.5762 15.5989L25.9854 18.053L9.50057 34.0681L7.09138 31.6139L23.5762 15.5989Z" fill="#CEFFFF"/>
<path d="M31.4336 7.16309L33.926 9.53189L26.1219 17.9644L23.6294 15.5956L31.4336 7.16309Z" fill="#CEFFFF"/>
<path d="M52.8555 27.3516L57.3367 32.1077L52.3667 36.6358L47.8855 31.8796L52.8555 27.3516Z" fill="#CEFFFF"/>
<path d="M22.6738 36.5813L29.1304 43.056L23.6036 48.5587L17.147 42.084L22.6738 36.5813Z" fill="#CEFFFF"/>
<path d="M48.0312 32.1733L52.635 36.8895L31.6919 57.0576L27.0881 52.3414L48.0312 32.1733Z" fill="#CEFFFF"/>
</g>
</svg>
