<svg width="18" height="17" viewBox="0 0 18 17" fill="none" xmlns="http://www.w3.org/2000/svg">
<path d="M18 5.375V3.125C18 1.40161 13.8494 0.5 9.75 0.5C5.65027 0.5 1.5 1.40161 1.5 3.125V5.375C1.5 5.58832 1.56441 5.78887 1.68361 5.97682C0.566895 6.42424 0 6.97735 0 7.625V9.875C0 10.555 0.652358 11.105 1.68663 11.5242C1.58606 11.7011 1.52009 11.9025 1.5 12.125V14.375C1.5 15.9422 4.93286 16.8272 8.63791 16.9752C8.64276 16.9754 8.64683 16.978 8.65173 16.978C8.65498 16.978 8.65763 16.9763 8.66084 16.9762C9.02266 16.9903 9.38603 17 9.75 17C10.132 17 10.5134 16.9896 10.8928 16.974C10.8961 16.974 10.8988 16.9758 10.9021 16.9758C10.9071 16.9758 10.9112 16.9732 10.9161 16.973C14.6001 16.8185 18 15.9345 18 14.375V12.125C18 11.4774 17.433 10.9246 16.3163 10.4769C16.4355 10.2889 16.5 10.0884 16.5 9.875V7.625C16.5 7.61823 16.4965 7.6126 16.4962 7.60591C16.4962 7.60042 16.4985 7.59538 16.4985 7.58985C16.4795 7.38568 16.4143 7.19452 16.3154 7.02337C17.3485 6.60423 18 6.05455 18 5.375ZM9.75 1.25C14.3284 1.25 17.25 2.36035 17.25 3.125C17.25 3.88965 14.3284 5 9.75 5C5.17163 5 2.25 3.88965 2.25 3.125C2.25 2.36035 5.17163 1.25 9.75 1.25ZM13.5271 6.96751V5.48038C14.0589 5.39962 14.5603 5.29924 15.0271 5.18269V6.649C14.5838 6.76807 14.0858 6.87706 13.5271 6.96751ZM9.75 7.25C9.50322 7.25 9.26367 7.24533 9.02673 7.2391V5.74007C9.26747 5.74629 9.50875 5.75 9.75 5.75C10.0092 5.75 10.2686 5.74629 10.5271 5.7391V7.23828C10.2733 7.24547 10.0151 7.25 9.75 7.25ZM6.77673 7.0788V5.58672C7.26406 5.64202 7.76659 5.68317 8.27673 5.71031V7.20829C7.74715 7.17914 7.24635 7.13529 6.77673 7.0788ZM2.25 5.375V4.28571C2.63653 4.55657 3.16031 4.78911 3.77673 4.98576V6.43848C2.79442 6.09726 2.25 5.70422 2.25 5.375ZM4.52673 5.19656C4.99438 5.31114 5.49559 5.41006 6.02673 5.48921V6.97557C5.46945 6.88699 4.97099 6.78028 4.52673 6.66315V5.19656ZM11.2771 5.70807C11.7875 5.67991 12.2902 5.63743 12.7771 5.58104V7.07294C12.3079 7.13052 11.807 7.17552 11.2771 7.20583V5.70807ZM0.75 9.875V8.78571C1.13654 9.05657 1.66031 9.28911 2.27673 9.48577V10.9385C1.29442 10.5973 0.75 10.2042 0.75 9.875ZM15.4511 10.3312C15.4503 10.3318 15.4496 10.3324 15.4487 10.333C15.2019 10.5306 14.8026 10.7316 14.2771 10.9184V9.46306C14.8703 9.26783 15.3748 9.03794 15.75 8.77083V9.875C15.75 10.0181 15.6475 10.1734 15.4511 10.3312ZM13.5271 11.149C13.0838 11.2681 12.5858 11.3771 12.0271 11.4675V9.97923C12.5589 9.89797 13.0603 9.79676 13.5271 9.67916V11.149ZM11.2771 11.5729C10.8078 11.6306 10.3065 11.6756 9.77636 11.7059V10.2081C10.287 10.1798 10.7899 10.1372 11.2771 10.0805V11.5729ZM9.02673 11.7383C8.77309 11.7454 8.515 11.75 8.25 11.75C8.00322 11.75 7.76367 11.7453 7.52673 11.7391V10.2401C7.76747 10.2463 8.00875 10.25 8.25 10.25C8.50905 10.25 8.76832 10.2463 9.02673 10.2391V11.7383ZM6.77673 11.7083C6.24714 11.6791 5.74635 11.6353 5.27673 11.5788V10.0867C5.76406 10.142 6.26659 10.1832 6.77673 10.2103V11.7083ZM4.52673 11.4756C3.96945 11.387 3.47099 11.2803 3.02673 11.1631V9.69657C3.49438 9.81114 3.99559 9.91007 4.52673 9.98922V11.4756ZM2.25 14.375V13.2857C2.63653 13.5566 3.16031 13.7891 3.77673 13.9858V15.4385C2.79442 15.0973 2.25 14.7042 2.25 14.375ZM8.27673 14.7103V16.2083C7.74714 16.1791 7.24635 16.1353 6.77673 16.0788V14.5867C7.26406 14.642 7.7666 14.6832 8.27673 14.7103ZM6.02673 15.9756C5.46945 15.887 4.97099 15.7803 4.52673 15.6631V14.1966C4.99438 14.3111 5.49559 14.4101 6.02673 14.4892V15.9756ZM9.02673 16.2391V14.7401C9.26747 14.7463 9.50875 14.75 9.75 14.75C10.0092 14.75 10.2686 14.7463 10.5271 14.7391V16.2383C10.2733 16.2455 10.0151 16.25 9.75 16.25C9.50322 16.25 9.26367 16.2453 9.02673 16.2391ZM15.0271 14.1827V15.649C14.5838 15.7681 14.0858 15.8771 13.5271 15.9675V14.4804C14.0589 14.3996 14.5603 14.2992 15.0271 14.1827ZM12.7771 16.0729C12.3079 16.1305 11.807 16.1755 11.2771 16.2058V14.7081C11.7875 14.6799 12.2902 14.6374 12.7771 14.581V16.0729ZM15.7771 15.4184V13.9687C16.3702 13.7757 16.8746 13.5486 17.25 13.2857V14.375C17.25 14.6979 16.7238 15.0819 15.7771 15.4184ZM17.25 12.125C17.25 12.8896 14.3284 14 9.75 14C5.1839 14 2.26703 12.8957 2.25 12.1662V12.1557C2.26465 12.011 2.33798 11.8887 2.43589 11.7859C3.72743 12.1744 5.4006 12.4058 7.13791 12.4752C7.14276 12.4754 7.14683 12.478 7.15173 12.478C7.15498 12.478 7.15763 12.4763 7.16084 12.4762C7.52266 12.4903 7.88603 12.5 8.25 12.5C8.63187 12.5 9.01319 12.4896 9.39254 12.474C9.39578 12.4741 9.39848 12.4758 9.40174 12.4758C9.40668 12.4758 9.41075 12.4732 9.41565 12.473C12.0343 12.3633 14.5046 11.8846 15.717 11.0563C16.8374 11.4478 17.25 11.8718 17.25 12.125ZM15.75 7.625C15.75 8.38965 12.8284 9.5 8.25 9.5C3.67163 9.5 0.75 8.38965 0.75 7.625C0.75 7.37176 1.16235 6.94774 2.28273 6.55621C3.50285 7.39003 5.99767 7.86954 8.63566 7.97514C8.6413 7.97542 8.64601 7.97839 8.65173 7.97839C8.65548 7.97839 8.6586 7.97633 8.66235 7.97624C9.02367 7.99034 9.38653 8 9.75 8C10.1315 8 10.5124 7.98961 10.8913 7.97404C10.8951 7.97413 10.8983 7.97619 10.9021 7.97619C10.9079 7.97619 10.9127 7.97317 10.9184 7.9729C12.6363 7.90071 14.2881 7.66991 15.566 7.2853C15.6638 7.38669 15.7376 7.50447 15.75 7.625ZM15.7771 6.41843V4.96873C16.3702 4.77565 16.8746 4.54864 17.25 4.28566V5.375C17.25 5.69791 16.7238 6.08187 15.7771 6.41843Z" fill="#5B7083"/>
</svg>
