<svg width="18" height="18" viewBox="0 0 18 18" fill="none" xmlns="http://www.w3.org/2000/svg">
<path d="M18 6.375V4.125C18 2.40161 13.8494 1.5 9.75 1.5C5.65027 1.5 1.5 2.40161 1.5 4.125V6.375C1.5 6.58832 1.56441 6.78887 1.68361 6.97682C0.566895 7.42424 0 7.97735 0 8.625V10.875C0 11.555 0.652358 12.105 1.68663 12.5242C1.58606 12.7011 1.52009 12.9025 1.5 13.125V15.375C1.5 16.9422 4.93286 17.8272 8.63791 17.9752C8.64276 17.9754 8.64683 17.978 8.65173 17.978C8.65498 17.978 8.65763 17.9763 8.66084 17.9762C9.02266 17.9903 9.38603 18 9.75 18C10.132 18 10.5134 17.9896 10.8928 17.974C10.8961 17.974 10.8988 17.9758 10.9021 17.9758C10.9071 17.9758 10.9112 17.9732 10.9161 17.973C14.6001 17.8185 18 16.9345 18 15.375V13.125C18 12.4774 17.433 11.9246 16.3163 11.4769C16.4355 11.2889 16.5 11.0884 16.5 10.875V8.625C16.5 8.61823 16.4965 8.6126 16.4962 8.60591C16.4962 8.60042 16.4985 8.59538 16.4985 8.58985C16.4795 8.38568 16.4143 8.19452 16.3154 8.02337C17.3485 7.60423 18 7.05455 18 6.375ZM9.75 2.25C14.3284 2.25 17.25 3.36035 17.25 4.125C17.25 4.88965 14.3284 6 9.75 6C5.17163 6 2.25 4.88965 2.25 4.125C2.25 3.36035 5.17163 2.25 9.75 2.25ZM13.5271 7.96751V6.48038C14.0589 6.39962 14.5603 6.29924 15.0271 6.18269V7.649C14.5838 7.76807 14.0858 7.87706 13.5271 7.96751ZM9.75 8.25C9.50322 8.25 9.26367 8.24533 9.02673 8.2391V6.74007C9.26747 6.74629 9.50875 6.75 9.75 6.75C10.0092 6.75 10.2686 6.74629 10.5271 6.7391V8.23828C10.2733 8.24547 10.0151 8.25 9.75 8.25ZM6.77673 8.0788V6.58672C7.26406 6.64202 7.76659 6.68317 8.27673 6.71031V8.20829C7.74715 8.17914 7.24635 8.13529 6.77673 8.0788ZM2.25 6.375V5.28571C2.63653 5.55657 3.16031 5.78911 3.77673 5.98576V7.43848C2.79442 7.09726 2.25 6.70422 2.25 6.375ZM4.52673 6.19656C4.99438 6.31114 5.49559 6.41006 6.02673 6.48921V7.97557C5.46945 7.88699 4.97099 7.78028 4.52673 7.66315V6.19656ZM11.2771 6.70807C11.7875 6.67991 12.2902 6.63743 12.7771 6.58104V8.07294C12.3079 8.13052 11.807 8.17552 11.2771 8.20583V6.70807ZM0.75 10.875V9.78571C1.13654 10.0566 1.66031 10.2891 2.27673 10.4858V11.9385C1.29442 11.5973 0.75 11.2042 0.75 10.875ZM15.4511 11.3312C15.4503 11.3318 15.4496 11.3324 15.4487 11.333C15.2019 11.5306 14.8026 11.7316 14.2771 11.9184V10.4631C14.8703 10.2678 15.3748 10.0379 15.75 9.77083V10.875C15.75 11.0181 15.6475 11.1734 15.4511 11.3312ZM13.5271 12.149C13.0838 12.2681 12.5858 12.3771 12.0271 12.4675V10.9792C12.5589 10.898 13.0603 10.7968 13.5271 10.6792V12.149ZM11.2771 12.5729C10.8078 12.6306 10.3065 12.6756 9.77636 12.7059V11.2081C10.287 11.1798 10.7899 11.1372 11.2771 11.0805V12.5729ZM9.02673 12.7383C8.77309 12.7454 8.515 12.75 8.25 12.75C8.00322 12.75 7.76367 12.7453 7.52673 12.7391V11.2401C7.76747 11.2463 8.00875 11.25 8.25 11.25C8.50905 11.25 8.76832 11.2463 9.02673 11.2391V12.7383ZM6.77673 12.7083C6.24714 12.6791 5.74635 12.6353 5.27673 12.5788V11.0867C5.76406 11.142 6.26659 11.1832 6.77673 11.2103V12.7083ZM4.52673 12.4756C3.96945 12.387 3.47099 12.2803 3.02673 12.1631V10.6966C3.49438 10.8111 3.99559 10.9101 4.52673 10.9892V12.4756ZM2.25 15.375V14.2857C2.63653 14.5566 3.16031 14.7891 3.77673 14.9858V16.4385C2.79442 16.0973 2.25 15.7042 2.25 15.375ZM8.27673 15.7103V17.2083C7.74714 17.1791 7.24635 17.1353 6.77673 17.0788V15.5867C7.26406 15.642 7.7666 15.6832 8.27673 15.7103ZM6.02673 16.9756C5.46945 16.887 4.97099 16.7803 4.52673 16.6631V15.1966C4.99438 15.3111 5.49559 15.4101 6.02673 15.4892V16.9756ZM9.02673 17.2391V15.7401C9.26747 15.7463 9.50875 15.75 9.75 15.75C10.0092 15.75 10.2686 15.7463 10.5271 15.7391V17.2383C10.2733 17.2455 10.0151 17.25 9.75 17.25C9.50322 17.25 9.26367 17.2453 9.02673 17.2391ZM15.0271 15.1827V16.649C14.5838 16.7681 14.0858 16.8771 13.5271 16.9675V15.4804C14.0589 15.3996 14.5603 15.2992 15.0271 15.1827ZM12.7771 17.0729C12.3079 17.1305 11.807 17.1755 11.2771 17.2058V15.7081C11.7875 15.6799 12.2902 15.6374 12.7771 15.581V17.0729ZM15.7771 16.4184V14.9687C16.3702 14.7757 16.8746 14.5486 17.25 14.2857V15.375C17.25 15.6979 16.7238 16.0819 15.7771 16.4184ZM17.25 13.125C17.25 13.8896 14.3284 15 9.75 15C5.1839 15 2.26703 13.8957 2.25 13.1662V13.1557C2.26465 13.011 2.33798 12.8887 2.43589 12.7859C3.72743 13.1744 5.4006 13.4058 7.13791 13.4752C7.14276 13.4754 7.14683 13.478 7.15173 13.478C7.15498 13.478 7.15763 13.4763 7.16084 13.4762C7.52266 13.4903 7.88603 13.5 8.25 13.5C8.63187 13.5 9.01319 13.4896 9.39254 13.474C9.39578 13.4741 9.39848 13.4758 9.40174 13.4758C9.40668 13.4758 9.41075 13.4732 9.41565 13.473C12.0343 13.3633 14.5046 12.8846 15.717 12.0563C16.8374 12.4478 17.25 12.8718 17.25 13.125ZM15.75 8.625C15.75 9.38965 12.8284 10.5 8.25 10.5C3.67163 10.5 0.75 9.38965 0.75 8.625C0.75 8.37176 1.16235 7.94774 2.28273 7.55621C3.50285 8.39003 5.99767 8.86954 8.63566 8.97514C8.6413 8.97542 8.64601 8.97839 8.65173 8.97839C8.65548 8.97839 8.6586 8.97633 8.66235 8.97624C9.02367 8.99034 9.38653 9 9.75 9C10.1315 9 10.5124 8.98961 10.8913 8.97404C10.8951 8.97413 10.8983 8.97619 10.9021 8.97619C10.9079 8.97619 10.9127 8.97317 10.9184 8.9729C12.6363 8.90071 14.2881 8.66991 15.566 8.2853C15.6638 8.38669 15.7376 8.50447 15.75 8.625ZM15.7771 7.41843V5.96873C16.3702 5.77565 16.8746 5.54864 17.25 5.28566V6.375C17.25 6.69791 16.7238 7.08187 15.7771 7.41843Z" fill="#C73333"/>
</svg>
