<svg width="51" height="37" viewBox="0 0 51 37" fill="none" xmlns="http://www.w3.org/2000/svg">
<g clip-path="url(#clip0_118_1436)">
<path d="M14.6836 20.7484C14.774 20.4728 14.9368 20.1999 14.9549 19.9198C15.2054 15.4533 15.6575 11.0066 16.2598 6.57433C16.3384 5.99706 16.4515 5.42338 16.5157 4.84431C16.5636 4.41697 16.7634 4.13956 17.1848 4.05876C17.9354 3.91601 18.6877 3.77237 19.4455 3.67541C19.8072 3.62962 20.0785 3.84329 20.0686 4.22485C20.0687 4.85094 20.0261 5.47634 19.941 6.09671C19.611 8.17596 19.2122 10.2453 18.9011 12.3282C18.5132 14.9317 18.1524 17.5353 17.8477 20.1505C17.6668 21.6767 17.6252 23.2191 17.5167 24.7543C17.5022 24.9473 17.4425 25.1385 17.4398 25.3315C17.4208 26.4582 16.6757 26.9646 15.729 27.2483C14.9965 27.4682 14.2396 27.6074 13.4918 27.778C12.7747 27.9396 12.1806 27.725 11.7194 27.1657C10.306 25.4482 9.00661 23.6455 7.97574 21.6785C6.25762 18.407 4.56663 15.1176 2.88469 11.8254C2.0609 10.2139 1.26965 8.58534 0.493787 6.95139C0.279052 6.49019 0.120296 6.00528 0.0208553 5.50687C-0.0315925 5.2519 0.0452728 4.94217 0.147455 4.68989C0.479323 3.87112 1.13492 3.30193 1.79775 2.75968C2.86569 1.88524 3.95896 1.04044 5.05313 0.19384C5.58032 -0.215545 6.34714 0.055583 6.59039 0.699288C8.23345 5.12801 9.8521 9.56661 11.5449 13.9774C12.2837 15.9031 13.1726 17.7705 14.0018 19.6639C14.16 20.023 14.3246 20.3821 14.4856 20.7412L14.6836 20.7484Z" fill="#3672E9"/>
<path d="M32.4078 12.5564C32.7912 12.3768 33.1312 12.1973 33.4866 12.0428C34.7969 11.4781 36.109 10.9116 37.4283 10.3712C37.6953 10.2691 37.981 10.2247 38.2666 10.241C39.2984 10.2886 39.831 10.7653 40.01 11.7789C40.0564 12.0895 40.0796 12.4031 40.0797 12.7171C40.1149 14.1966 40.1701 15.6752 40.1638 17.1548C40.1638 18.2743 40.1059 19.3992 40.0299 20.5133C39.9892 21.1202 39.6863 21.5907 39.1465 21.9444C36.644 23.5967 33.7974 24.6654 30.8199 25.0705C30.2683 25.1486 29.7411 25.0489 29.2944 24.6709C28.9499 24.381 28.581 24.1197 28.2437 23.8217C27.9064 23.5236 27.5826 23.4518 27.1893 23.7184C25.8058 24.6539 24.264 25.2446 22.686 25.7626C21.7817 26.058 20.9516 25.6944 20.7726 24.7607C20.5266 23.4724 20.3593 22.1635 20.2418 20.8554C20.1034 19.3076 20.0455 17.7518 19.9705 16.1986C19.9425 15.6124 20.1278 15.133 20.7021 14.8268C21.7094 14.2882 22.6969 13.7145 23.6861 13.1471C24.0352 12.9469 24.301 13.0385 24.3824 13.3994C24.5189 13.9641 24.6045 14.5397 24.6383 15.1195C24.7233 17.1216 24.7649 19.1254 24.8328 21.1292C24.8327 21.4131 24.8751 21.6953 24.9584 21.9668C25.0028 22.0925 25.2695 22.2667 25.3572 22.2308C26.1837 21.8923 27.1052 21.6437 27.3774 20.6247C27.4634 20.3263 27.507 20.0175 27.5067 19.7071C27.3982 15.5953 27.2634 11.4844 27.1667 7.37262C27.1423 6.32761 27.2074 5.279 27.2725 4.23489C27.3032 3.73304 27.5438 3.3452 28.0728 3.14948C29.2546 2.70958 30.4175 2.2176 31.6039 1.78756C32.2776 1.54337 32.624 1.79654 32.6086 2.50578C32.5552 4.9585 32.4693 7.40943 32.4106 9.86125C32.3898 10.7429 32.4078 11.6209 32.4078 12.5564ZM36.4988 18.0382H36.3767C36.3767 16.8594 36.3975 15.6797 36.3695 14.501C36.3514 13.7621 35.9471 13.5188 35.2301 13.7738C34.3665 14.0808 33.5056 14.3959 32.6583 14.7434C32.5091 14.8044 32.3373 15.0396 32.3391 15.1922C32.35 16.898 32.3717 18.5957 32.4413 20.2961C32.4612 20.7629 32.6222 21.2325 32.775 21.6823C32.9323 22.1482 33.3709 22.3708 33.7769 22.1653C34.4307 21.834 35.0971 21.4928 35.6632 21.0394C35.9824 20.7836 36.2058 20.3212 36.3053 19.9065C36.4526 19.3014 36.4454 18.6621 36.4988 18.0382Z" fill="#3672E9"/>
<path d="M16.3748 36.9993C15.5085 36.9517 14.8086 36.4301 14.4035 35.6732C13.8609 34.6668 13.7868 33.5554 13.5417 32.4834C13.3898 31.8191 13.6448 31.4959 14.2796 31.2517C17.4789 30.0334 20.7759 29.1626 24.1362 28.5296C28.2569 27.754 32.4229 27.3814 36.607 27.1551C40.0993 26.9675 43.588 26.9074 47.0757 27.2449C47.6237 27.2979 48.1844 27.218 48.736 27.2539C49.6204 27.3105 49.8057 27.6076 49.5498 28.4587C49.3617 29.0961 48.962 29.5019 48.3074 29.6976C46.8036 30.1465 45.2735 30.3871 43.7055 30.5308C39.4292 30.924 35.2108 31.7123 31.0132 32.5957C27.7008 33.2896 24.412 34.0851 21.2235 35.2405C19.9955 35.6894 18.8055 36.2334 17.5865 36.7048C17.2067 36.8484 16.7863 36.9023 16.3748 36.9993Z" fill="#3672E9"/>
<path d="M41.292 17.3513C41.292 16.1399 41.292 14.9285 41.292 13.7171C41.292 12.7735 41.925 12.005 42.8293 11.7546C44.6251 11.2608 46.4138 10.7383 48.2061 10.2337C48.5678 10.1314 48.934 10.0416 49.3038 9.97518C50.0164 9.84679 50.5056 10.2598 50.5282 10.9627C50.5807 12.6066 50.6494 14.2495 50.6955 15.8933C50.6988 16.2214 50.6685 16.549 50.6051 16.871C50.5246 17.3199 50.2759 17.7014 49.8365 17.8585C48.764 18.2356 47.6897 18.6243 46.5892 18.9009C45.7835 19.1038 45.4715 19.356 45.5611 20.173C45.6361 20.8553 45.7708 21.5313 45.8757 22.211C45.9381 22.6185 46.1678 22.7577 46.5476 22.6069C47.5233 22.219 48.4927 21.8132 49.4675 21.4236C49.7453 21.3109 50.0298 21.2152 50.3193 21.1372C50.6928 21.0376 50.8854 21.2189 50.9523 21.5789C51.0835 22.3214 50.9469 22.9875 50.02 23.4176C48.2585 24.2354 46.5205 25.0865 44.5944 25.4618C44.447 25.4905 44.3005 25.5282 44.1531 25.5516C42.9396 25.7814 42.0217 25.2876 41.7622 24.0873C41.5361 23.0432 41.4557 21.9587 41.4005 20.8876C41.3408 19.7098 41.3869 18.5265 41.3869 17.3459L41.292 17.3513ZM45.5547 17.5587C45.9788 17.3791 46.4066 17.2561 46.7646 17.02C47.0025 16.8665 47.2828 16.5711 47.2982 16.3189C47.3587 15.3142 47.3226 14.3042 47.3226 13.2808C46.8514 13.4002 46.4029 13.5169 45.9535 13.6273C45.4336 13.7557 45.2382 13.9864 45.2699 14.5134C45.3241 15.4229 45.3992 16.3305 45.4715 17.2391C45.4911 17.3479 45.5202 17.4548 45.5583 17.5587H45.5547Z" fill="#3672E9"/>
</g>
<defs>
<clipPath id="clip0_118_1436">
<rect width="51" height="37" fill="white"/>
</clipPath>
</defs>
</svg>
